<?xml version="1.0" encoding="UTF-8" standalone="no"?>
<!-- Created with Inkscape (http://www.inkscape.org/) -->

<svg
   width="264.58337mm"
   height="264.58334mm"
   viewBox="0 0 264.58337 264.58334"
   version="1.1"
   id="svg5"
   inkscape:version="1.2.2 (732a01da63, 2022-12-09, custom)"
   sodipodi:docname="logo.svg"
   inkscape:export-filename="../d005f48e/logo.png"
   inkscape:export-xdpi="96"
   inkscape:export-ydpi="96"
   xmlns:inkscape="http://www.inkscape.org/namespaces/inkscape"
   xmlns:sodipodi="http://sodipodi.sourceforge.net/DTD/sodipodi-0.dtd"
   xmlns="http://www.w3.org/2000/svg"
   xmlns:svg="http://www.w3.org/2000/svg">
  <sodipodi:namedview
     id="namedview7"
     pagecolor="#505050"
     bordercolor="#eeeeee"
     borderopacity="1"
     inkscape:showpageshadow="0"
     inkscape:pageopacity="0"
     inkscape:pagecheckerboard="0"
     inkscape:deskcolor="#505050"
     inkscape:document-units="mm"
     showgrid="false"
     inkscape:zoom="14.235466"
     inkscape:cx="-1831.6928"
     inkscape:cy="150.0829"
     inkscape:window-width="1870"
     inkscape:window-height="1016"
     inkscape:window-x="0"
     inkscape:window-y="0"
     inkscape:window-maximized="1"
     inkscape:current-layer="layer1" />
  <defs
     id="defs2">
    <filter
       inkscape:label="Cubes"
       inkscape:menu="Scatter"
       inkscape:menu-tooltip="Scattered cubes; adjust the Morphology primitive to vary size"
       style="color-interpolation-filters:sRGB"
       id="filter4015"
       x="-0.017497813"
       y="-0.026246719"
       width="1.0349956"
       height="1.0524935">
      <feTurbulence
         baseFrequency="0.14"
         numOctaves="1"
         type="fractalNoise"
         id="feTurbulence3999" />
      <feColorMatrix
         values="1 0 0 0 0 0 1 0 0 0 0 0 1 0 0 0 0 0 6 -3.5 "
         result="result5"
         id="feColorMatrix4001" />
      <feComposite
         in2="result5"
         operator="in"
         in="SourceGraphic"
         result="result6"
         id="feComposite4003" />
      <feMorphology
         result="result3"
         radius="5"
         operator="dilate"
         in="result6"
         id="feMorphology4005" />
      <feDisplacementMap
         result="result4"
         scale="0"
         yChannelSelector="A"
         xChannelSelector="R"
         in="result3"
         in2="result3"
         id="feDisplacementMap4007" />
      <feComposite
         in2="result4"
         operator="arithmetic"
         result="result2"
         k1="1"
         k3="1"
         id="feComposite4009"
         k2="0"
         k4="0" />
      <feBlend
         mode="darken"
         in="result2"
         in2="result2"
         id="feBlend4011" />
      <feConvolveMatrix
         order="3 3"
         kernelMatrix="2 0 0 0 1 0 0 0 -1 "
         targetX="1"
         targetY="1"
         divisor="2"
         edgeMode="duplicate"
         id="feConvolveMatrix4013" />
    </filter>
  </defs>
  <g
     inkscape:label="Layer 1"
     inkscape:groupmode="layer"
     id="layer1"
     transform="translate(-801.45094,-358.54524)">
    <g
       id="path3550" />
    <g
       id="path3270" />
    <path
       id="path1313"
       style="color:#000000;fill:#2962ff;fill-opacity:1;stroke-width:0.799998;stroke-linecap:round;stroke-linejoin:round;stroke-miterlimit:10.7;-inkscape-stroke:none;paint-order:markers stroke fill"
       d="m 933.74151,358.54524 a 26.458189,26.458353 0 0 0 -3.37463,0.24144 26.458189,26.458353 0 0 0 -0.96407,0.15296 26.458189,26.458353 0 0 0 -2.5247,0.54896 26.458189,26.458353 0 0 0 -0.874,0.2344 26.458189,26.458353 0 0 0 -3.15391,1.17616 26.458189,26.458353 0 0 0 -0.47,0.23985 26.458189,26.458353 0 0 0 -2.52678,1.37952 26.458189,26.458353 0 0 0 -0.84912,0.55112 26.458189,26.458353 0 0 0 -2.13239,1.59656 26.458189,26.458353 0 0 0 -0.60312,0.48824 26.458189,26.458353 0 0 0 -2.3771,2.37753 26.458189,26.458353 0 0 0 -0.48368,0.59736 26.458189,26.458353 0 0 0 -1.60079,2.13816 26.458189,26.458353 0 0 0 -0.54856,0.84504 26.458189,26.458353 0 0 0 -1.37911,2.52512 26.458189,26.458353 0 0 0 -0.24232,0.47544 26.458189,26.458353 0 0 0 -1.17368,3.14728 26.458189,26.458353 0 0 0 -0.23848,0.88928 26.458189,26.458353 0 0 0 -0.54576,2.50776 26.458189,26.458353 0 0 0 -0.15416,0.97521 26.458189,26.458353 0 0 0 -0.24103,3.37056 V 565.67126 C 896.22889,561.76301 886.07071,555.41805 877.61539,546.96269 862.72258,532.06978 854.36694,511.898 854.36694,490.83621 v -105.7231 a 132.29101,132.29183 0 0 0 -52.916,105.71278 26.458189,26.458353 0 0 0 0,0.0104 c 0,35.0758 13.94633,68.74296 38.74847,93.54527 24.80212,24.80227 58.46747,38.74701 93.54298,38.74701 a 26.458189,26.458353 0 0 0 3.61606,-0.2588 26.458189,26.458353 0 0 0 1.16999,-0.23272 26.458189,26.458353 0 0 0 2.37671,-0.5172 26.458189,26.458353 0 0 0 1.35184,-0.45888 26.458189,26.458353 0 0 0 2.05919,-0.76816 26.458189,26.458353 0 0 0 1.36591,-0.67344 26.458189,26.458353 0 0 0 1.84671,-1.00832 26.458189,26.458353 0 0 0 1.30343,-0.87104 26.458189,26.458353 0 0 0 1.65368,-1.23777 26.458189,26.458353 0 0 0 1.18935,-1.04304 26.458189,26.458353 0 0 0 1.45647,-1.4564 26.458189,26.458353 0 0 0 1.04008,-1.18608 26.458189,26.458353 0 0 0 1.24359,-1.66113 26.458189,26.458353 0 0 0 0.86527,-1.2952 26.458189,26.458353 0 0 0 1.0128,-1.85456 26.458189,26.458353 0 0 0 0.67096,-1.36056 26.458189,26.458353 0 0 0 0.76936,-2.06289 26.458189,26.458353 0 0 0 0.45768,-1.34856 26.458189,26.458353 0 0 0 0.51383,-2.36016 26.458189,26.458353 0 0 0 0.23648,-1.19064 26.458189,26.458353 0 0 0 0.2584,-3.61241 v -79.37508 h 79.37462 a 26.458189,26.458353 0 0 0 26.4595,-26.45924 26.458189,26.458353 0 0 0 -26.4595,-26.45796 h -79.37462 v -52.9171 h 79.37462 A 132.29101,132.29183 0 0 0 933.77463,358.54532 Z"
       inkscape:export-filename="../d005f48e/logo.png"
       inkscape:export-xdpi="96"
       inkscape:export-ydpi="96" />
  </g>
</svg>
